<svg xmlns="http://www.w3.org/2000/svg" enable-background="new 0 0 256 256" viewBox="0 0 256 256" id="business-report">
  <path fill="#83DEFF" d="M217,238H59.198c-2.761,0-5-2.239-5-5V17.5c0-2.761,2.239-5,5-5H217c2.761,0,5,2.239,5,5V233
						C222,235.761,219.761,238,217,238z"></path>
  <path fill="#EDF9FC" d="M196.802,252H39c-2.761,0-5-2.239-5-5V31.5c0-2.761,2.239-5,5-5h157.802c2.761,0,5,2.239,5,5V247
						C201.802,249.761,199.563,252,196.802,252z"></path>
  <path fill="#D0EFF7" d="M54,247V31.5c0-2.761,2.239-5,5-5H39c-2.761,0-5,2.239-5,5V247c0,2.761,2.239,5,5,5h20
						C56.239,252,54,249.761,54,247z"></path>
  <rect width="18.284" height="30.404" x="65.472" y="197.706" fill="#FF6E80"></rect>
  <rect width="18.284" height="47.343" x="94.783" y="180.768" fill="#FF6E80"></rect>
  <rect width="18.284" height="37.57" x="124.095" y="190.54" fill="#FF6E80"></rect>
  <rect width="18.284" height="80" x="153.406" y="148.111" fill="#FF6E80"></rect>
  <path fill="#BAC0CE" d="M115.901,80.995H50.422c-1.105,0-2-0.895-2-2v-35.98c0-1.105,0.895-2,2-2h65.479c1.105,0,2,0.895,2,2
						v35.98C117.901,80.099,117.005,80.995,115.901,80.995z"></path>
  <path fill="#ADB2BC" d="M50.422,41.014c-1.105,0-2,0.896-2,2v35.98c0,1.105,0.895,2,2,2H54v-39.98H50.422z"></path>
  <path fill="#D0EFF7" d="M212.167,99.75c-1.38,0-2.5-1.12-2.5-2.49c0-1.38,1.12-2.51,2.5-2.51s2.5,1.13,2.5,2.51
							C214.667,98.63,213.547,99.75,212.167,99.75z M212.167,89.75c-1.38,0-2.5-1.12-2.5-2.5V32.26c0-1.38,1.12-2.51,2.5-2.51
							s2.5,1.13,2.5,2.51v54.99C214.667,88.63,213.547,89.75,212.167,89.75z"></path>
  <path fill="#384249" d="M196.802,254.5H39c-4.136,0-7.5-3.365-7.5-7.5V31.5c0-4.135,3.364-7.5,7.5-7.5h157.802
						c4.136,0,7.5,3.365,7.5,7.5V247C204.302,251.135,200.938,254.5,196.802,254.5z M39,29c-1.379,0-2.5,1.121-2.5,2.5V247
						c0,1.379,1.121,2.5,2.5,2.5h157.802c1.379,0,2.5-1.121,2.5-2.5V31.5c0-1.379-1.121-2.5-2.5-2.5H39z"></path>
  <path fill="#384249" d="M74.25 58c-6.479 0-11.75-5.271-11.75-11.75V12.5c0-6.065 4.935-11 11-11H75c6.065 0 11 4.935 11 11 0 1.381-1.119 2.5-2.5 2.5S81 13.881 81 12.5c0-3.308-2.691-6-6-6h-1.5c-3.309 0-6 2.692-6 6v33.75c0 3.722 3.028 6.75 6.75 6.75S81 49.972 81 46.25V19.5c0-1.381 1.119-2.5 2.5-2.5s2.5 1.119 2.5 2.5v26.75C86 52.729 80.729 58 74.25 58zM83.756 230.611H65.472c-1.381 0-2.5-1.119-2.5-2.5v-30.404c0-1.381 1.119-2.5 2.5-2.5h18.284c1.381 0 2.5 1.119 2.5 2.5v30.404C86.256 229.491 85.137 230.611 83.756 230.611zM67.972 225.611h13.284v-25.404H67.972V225.611zM113.067 230.611H94.783c-1.381 0-2.5-1.119-2.5-2.5v-47.343c0-1.381 1.119-2.5 2.5-2.5h18.284c1.381 0 2.5 1.119 2.5 2.5v47.343C115.567 229.491 114.448 230.611 113.067 230.611zM97.283 225.611h13.284v-42.343H97.283V225.611zM142.379 230.611h-18.284c-1.381 0-2.5-1.119-2.5-2.5v-37.57c0-1.381 1.119-2.5 2.5-2.5h18.284c1.381 0 2.5 1.119 2.5 2.5v37.57C144.879 229.491 143.76 230.611 142.379 230.611zM126.595 225.611h13.284v-32.57h-13.284V225.611zM171.689 230.611h-18.283c-1.381 0-2.5-1.119-2.5-2.5v-80c0-1.381 1.119-2.5 2.5-2.5h18.283c1.381 0 2.5 1.119 2.5 2.5v80C174.189 229.491 173.07 230.611 171.689 230.611zM155.906 225.611h13.283v-75h-13.283V225.611z"></path>
  <path fill="#384249" d="M188.739,239.986H48.422c-1.381,0-2.5-1.119-2.5-2.5v-24.683c0-1.381,1.119-2.5,2.5-2.5
						s2.5,1.119,2.5,2.5v22.183h135.317v-93.75H50.922v56.567c0,1.381-1.119,2.5-2.5,2.5s-2.5-1.119-2.5-2.5v-59.067
						c0-1.381,1.119-2.5,2.5-2.5h140.317c1.381,0,2.5,1.119,2.5,2.5v98.75C191.239,238.866,190.12,239.986,188.739,239.986z"></path>
  <path fill="#384249" d="M111.34 171.5H66.728c-2.331 0-4.228-1.896-4.228-4.228v-15.434c0-2.331 1.896-4.228 4.228-4.228h44.612c2.331 0 4.228 1.896 4.228 4.228v15.434C115.567 169.604 113.671 171.5 111.34 171.5zM67.5 166.5h43.067v-13.889H67.5V166.5zM115.9 83.495H50.422c-2.481 0-4.5-2.019-4.5-4.5v-35.98c0-2.481 2.019-4.5 4.5-4.5H115.9c2.481 0 4.5 2.019 4.5 4.5v35.98C120.4 81.476 118.382 83.495 115.9 83.495zM50.922 78.495H115.4v-34.98H50.922V78.495zM188.739 49.505h-55.503c-1.381 0-2.5-1.119-2.5-2.5s1.119-2.5 2.5-2.5h55.503c1.381 0 2.5 1.119 2.5 2.5S190.12 49.505 188.739 49.505zM188.739 63.505h-55.503c-1.381 0-2.5-1.119-2.5-2.5s1.119-2.5 2.5-2.5h55.503c1.381 0 2.5 1.119 2.5 2.5S190.12 63.505 188.739 63.505zM188.739 77.505h-55.503c-1.381 0-2.5-1.119-2.5-2.5s1.119-2.5 2.5-2.5h55.503c1.381 0 2.5 1.119 2.5 2.5S190.12 77.505 188.739 77.505zM109.5 97.313H48.422c-1.381 0-2.5-1.119-2.5-2.5s1.119-2.5 2.5-2.5H109.5c1.381 0 2.5 1.119 2.5 2.5S110.881 97.313 109.5 97.313zM109.5 111.313H48.422c-1.381 0-2.5-1.119-2.5-2.5s1.119-2.5 2.5-2.5H109.5c1.381 0 2.5 1.119 2.5 2.5S110.881 111.313 109.5 111.313zM109.5 125.313H48.422c-1.381 0-2.5-1.119-2.5-2.5s1.119-2.5 2.5-2.5H109.5c1.381 0 2.5 1.119 2.5 2.5S110.881 125.313 109.5 125.313zM188.485 97.313h-70.159c-1.381 0-2.5-1.119-2.5-2.5s1.119-2.5 2.5-2.5h70.159c1.381 0 2.5 1.119 2.5 2.5S189.866 97.313 188.485 97.313zM188.485 111.313h-70.159c-1.381 0-2.5-1.119-2.5-2.5s1.119-2.5 2.5-2.5h70.159c1.381 0 2.5 1.119 2.5 2.5S189.866 111.313 188.485 111.313zM188.485 125.313h-70.159c-1.381 0-2.5-1.119-2.5-2.5s1.119-2.5 2.5-2.5h70.159c1.381 0 2.5 1.119 2.5 2.5S189.866 125.313 188.485 125.313z"></path>
  <path fill="#384249" d="M217,240.5h-15.198c-1.381,0-2.5-1.119-2.5-2.5V31.5c0-1.379-1.121-2.5-2.5-2.5H54.198
						c-1.381,0-2.5-1.119-2.5-2.5v-9c0-4.135,3.364-7.5,7.5-7.5H185c1.381,0,2.5,1.119,2.5,2.5S186.381,15,185,15H59.198
						c-1.379,0-2.5,1.121-2.5,2.5V24h140.104c4.136,0,7.5,3.365,7.5,7.5v204H217c1.379,0,2.5-1.121,2.5-2.5V17.5
						c0-1.379-1.121-2.5-2.5-2.5h-17c-1.381,0-2.5-1.119-2.5-2.5s1.119-2.5,2.5-2.5h17c4.136,0,7.5,3.365,7.5,7.5V233
						C224.5,237.135,221.136,240.5,217,240.5z"></path>
</svg>
